<svg width="26" height="26" viewBox="0 0 26 26" fill="none" xmlns="http://www.w3.org/2000/svg">
<path d="M13 7.25C11.8628 7.25 10.7511 7.58723 9.80547 8.21905C8.85989 8.85087 8.1229 9.74889 7.68769 10.7996C7.25249 11.8502 7.13862 13.0064 7.36049 14.1218C7.58235 15.2372 8.12999 16.2617 8.93414 17.0659C9.73829 17.87 10.7628 18.4177 11.8782 18.6395C12.9936 18.8614 14.1498 18.7475 15.2004 18.3123C16.2511 17.8771 17.1491 17.1401 17.781 16.1945C18.4128 15.2489 18.75 14.1372 18.75 13C18.75 11.475 18.1442 10.0125 17.0659 8.93414C15.9875 7.8558 14.525 7.25 13 7.25ZM13 17.25C12.1594 17.25 11.3377 17.0007 10.6388 16.5337C9.93992 16.0668 9.39519 15.403 9.07351 14.6264C8.75184 13.8498 8.66768 12.9953 8.83166 12.1709C8.99565 11.3464 9.40042 10.5892 9.9948 9.9948C10.5892 9.40042 11.3464 8.99565 12.1709 8.83166C12.9953 8.66768 13.8498 8.75184 14.6264 9.07351C15.403 9.39518 16.0668 9.93992 16.5337 10.6388C17.0007 11.3377 17.25 12.1594 17.25 13C17.2467 14.1262 16.7979 15.2052 16.0016 16.0016C15.2052 16.7979 14.1262 17.2467 13 17.25ZM18.5 0.75H7.5C5.70979 0.75 3.9929 1.46116 2.72703 2.72703C1.46116 3.9929 0.75 5.70979 0.75 7.5V18.5C0.75 20.2902 1.46116 22.0071 2.72703 23.273C3.9929 24.5388 5.70979 25.25 7.5 25.25H18.5C20.2902 25.25 22.0071 24.5388 23.273 23.273C24.5388 22.0071 25.25 20.2902 25.25 18.5V7.5C25.25 5.70979 24.5388 3.9929 23.273 2.72703C22.0071 1.46116 20.2902 0.75 18.5 0.75ZM23.75 18.5C23.75 19.8924 23.1969 21.2277 22.2123 22.2123C21.2277 23.1969 19.8924 23.75 18.5 23.75H7.5C6.10761 23.75 4.77226 23.1969 3.78769 22.2123C2.80312 21.2277 2.25 19.8924 2.25 18.5V7.5C2.25 6.10761 2.80312 4.77225 3.78769 3.78769C4.77226 2.80312 6.10761 2.25 7.5 2.25H18.5C19.8924 2.25 21.2277 2.80312 22.2123 3.78769C23.1969 4.77225 23.75 6.10761 23.75 7.5V18.5ZM20.75 6.5C20.75 6.74723 20.6767 6.9889 20.5393 7.19446C20.402 7.40002 20.2068 7.56024 19.9784 7.65485C19.7499 7.74946 19.4986 7.77421 19.2561 7.72598C19.0137 7.67775 18.7909 7.5587 18.6161 7.38388C18.4413 7.20907 18.3223 6.98634 18.274 6.74386C18.2258 6.50139 18.2505 6.25005 18.3452 6.02165C18.4398 5.79324 18.6 5.59801 18.8055 5.46066C19.0111 5.32331 19.2528 5.25 19.5 5.25C19.8315 5.25 20.1495 5.3817 20.3839 5.61612C20.6183 5.85054 20.75 6.16848 20.75 6.5Z" fill="#011C44"/>
</svg>
