<svg width="17" height="29" viewBox="0 0 17 29" fill="none" xmlns="http://www.w3.org/2000/svg">
<path d="M15.9867 1.12809C14.6417 0.985413 13.2899 0.915978 11.9374 0.920095C7.4534 0.920095 4.66673 3.77609 4.66673 8.37343V11.4948H0.900065C0.723254 11.4948 0.553684 11.565 0.42866 11.69C0.303636 11.815 0.233398 11.9846 0.233398 12.1614V17.2948C0.233398 17.4716 0.303636 17.6411 0.42866 17.7662C0.553684 17.8912 0.723254 17.9614 0.900065 17.9614H4.66673V28.2548C4.66673 28.4316 4.73697 28.6011 4.86199 28.7262C4.98702 28.8512 5.15659 28.9214 5.3334 28.9214H10.6374C10.8142 28.9214 10.9838 28.8512 11.1088 28.7262C11.2338 28.6011 11.3041 28.4316 11.3041 28.2548V17.9614H15.0587C15.2206 17.9615 15.3769 17.9027 15.4986 17.796C15.6203 17.6893 15.699 17.5419 15.7201 17.3814L16.3827 12.2481C16.3951 12.154 16.3872 12.0584 16.3596 11.9676C16.332 11.8768 16.2853 11.7929 16.2227 11.7216C16.1601 11.6503 16.083 11.5932 15.9966 11.554C15.9101 11.5149 15.8163 11.4947 15.7214 11.4948H11.3041V8.88276C11.3041 7.58943 11.5641 7.04943 13.1814 7.04943H15.9001C16.0769 7.04943 16.2464 6.97919 16.3715 6.85417C16.4965 6.72914 16.5667 6.55957 16.5667 6.38276V1.78943C16.5668 1.62757 16.508 1.47122 16.4013 1.34953C16.2946 1.22784 16.1472 1.14914 15.9867 1.12809ZM15.2334 5.71476L13.1801 5.71609C10.3041 5.71609 9.97073 7.52409 9.97073 8.88276V12.1628C9.97073 12.3393 10.0408 12.5087 10.1655 12.6337C10.2903 12.7587 10.4595 12.8291 10.6361 12.8294H14.9641L14.4721 16.6294H10.6374C10.4606 16.6294 10.291 16.6997 10.166 16.8247C10.041 16.9497 9.97073 17.1193 9.97073 17.2961V27.5868H6.00006V17.2961C6.00006 17.1193 5.92983 16.9497 5.8048 16.8247C5.67978 16.6997 5.51021 16.6294 5.3334 16.6294H1.56807V12.8294H5.3334C5.51021 12.8294 5.67978 12.7592 5.8048 12.6342C5.92983 12.5091 6.00006 12.3396 6.00006 12.1628V8.37343C6.00006 4.54143 8.22007 2.25343 11.9374 2.25343C13.2827 2.25343 14.4974 2.32676 15.2334 2.39076V5.71476Z" fill="#011C44"/>
</svg>
