<svg width="28" height="32" viewBox="0 0 28 32" fill="none" xmlns="http://www.w3.org/2000/svg">
<path d="M25.6549 22.9573L25.4816 22.7413C24.1096 21.0066 22.9629 20.104 21.9789 19.9853C21.1282 19.8693 20.3056 20.4573 19.4309 21.0626L18.4962 21.6466C18.3842 21.7026 18.2736 21.748 18.1696 21.7786C17.6229 21.9333 16.2429 22.024 15.4616 21.3093C14.5522 20.4773 13.1416 18.9546 12.0442 17.624C10.9962 16.2466 9.84423 14.5293 9.2429 13.448C8.7349 12.532 9.16023 11.2506 9.44423 10.776C9.50023 10.6826 9.57357 10.5906 9.6549 10.5L10.4789 9.73865C10.4909 9.72665 10.4962 9.71198 10.5069 9.70131C10.5149 9.69331 10.5282 9.69598 10.5376 9.68931C11.2816 9.06131 12.0509 8.41465 12.1562 7.58398C12.2802 6.60798 11.6736 5.28798 10.2989 3.55465L10.1309 3.33865C9.28023 2.24798 7.99357 0.598646 6.14557 0.870646C5.4189 0.978646 4.76957 1.22665 4.10023 1.64665C4.09357 1.65065 4.08957 1.65865 4.08423 1.66265C4.0789 1.66665 4.07223 1.66665 4.0669 1.67065L3.1349 2.36131C3.12557 2.36665 3.12023 2.37865 3.1109 2.38665C3.10423 2.39331 3.09357 2.39465 3.08557 2.40131C2.97757 2.49198 2.86957 2.58531 2.7629 2.68131C1.81757 3.52398 -0.2291 5.97065 1.1669 10.496C2.06823 13.4186 3.9269 16.8293 6.5549 20.3786L6.52957 20.4L7.9789 22.2053L7.9909 22.196C10.8402 25.5666 13.7402 28.172 16.3976 29.7493C18.1709 30.8026 19.7202 31.1506 20.9949 31.1506C22.6722 31.1506 23.8736 30.548 24.4762 30.156L24.8549 29.9026C24.8976 29.8733 24.9282 29.832 24.9589 29.7946L25.7842 29.1733C25.7936 29.1653 25.7989 29.1546 25.8082 29.1466C25.8122 29.1426 25.8189 29.144 25.8242 29.14C26.4109 28.604 26.8176 28.0426 27.1002 27.3773C27.8322 25.672 26.5216 24.0386 25.6549 22.9573ZM26.1202 26.9586C25.9002 27.476 25.5789 27.916 25.1149 28.3426L23.8869 29.2666C22.7749 29.9893 20.3976 30.8826 16.9442 28.832C14.2869 27.2546 11.3616 24.588 8.4829 21.12L7.70423 20.136C4.99357 16.5413 3.0869 13.0986 2.1869 10.1813C1.01757 6.38798 2.4909 4.35331 3.47757 3.47465C3.57757 3.38398 3.67757 3.29998 3.77623 3.21598L3.78023 3.21198L4.6749 2.54931C5.2189 2.20531 5.7229 2.01331 6.3029 1.92531C7.54157 1.73865 8.54957 3.04531 9.28957 3.99465L9.4629 4.21465C10.9989 6.15198 11.1469 7.07331 11.0989 7.44931C11.0456 7.86665 10.4109 8.40131 9.8509 8.87198L9.77223 8.93865C9.76957 8.94131 9.76823 8.94531 9.76557 8.94798C9.76157 8.95065 9.75757 8.95198 9.75357 8.95465L8.90157 9.74265C8.89623 9.74798 8.89357 9.75465 8.88823 9.76131C8.8829 9.76798 8.87223 9.77065 8.8669 9.77731C8.7349 9.92531 8.62157 10.0733 8.52957 10.2266C8.0509 11.028 7.5989 12.684 8.31223 13.9653C8.9349 15.0853 10.1202 16.8546 11.2096 18.284C12.3482 19.6653 13.8002 21.2333 14.7416 22.0933C15.4469 22.7373 16.4282 22.9533 17.2776 22.9533C17.7322 22.9533 18.1496 22.8906 18.4656 22.8013C18.6322 22.7533 18.8042 22.684 18.9816 22.5973C18.9922 22.592 18.9976 22.5826 19.0082 22.576C19.0136 22.5733 19.0216 22.5746 19.0269 22.5706L20.0162 21.952C20.0482 21.9306 20.0696 21.9026 20.0962 21.876L20.1082 21.8893C20.7176 21.4666 21.4122 20.9706 21.8469 21.0426C22.2322 21.0893 23.1069 21.46 24.6456 23.4026L24.8229 23.6253C25.5722 24.56 26.5989 25.84 26.1202 26.9586Z" fill="#011C44"/>
</svg>
